<?xml version="1.0" encoding="UTF-8" standalone="no"?>
<svg
   xmlns:dc="http://purl.org/dc/elements/1.1/"
   xmlns:cc="http://creativecommons.org/ns#"
   xmlns:rdf="http://www.w3.org/1999/02/22-rdf-syntax-ns#"
   xmlns:svg="http://www.w3.org/2000/svg"
   xmlns="http://www.w3.org/2000/svg"
   xmlns:sodipodi="http://sodipodi.sourceforge.net/DTD/sodipodi-0.dtd"
   xmlns:inkscape="http://www.inkscape.org/namespaces/inkscape"
   id="svg4678"
   version="1.1"
   viewBox="0 0 8.2060003 9.1260004"
   height="9.1260004mm"
   width="8.2060003mm"
   sodipodi:docname="leaf2.svg"
   inkscape:version="0.92.4 (f8dce91, 2019-08-02)">
  <sodipodi:namedview
     pagecolor="#ffffff"
     bordercolor="#666666"
     borderopacity="1"
     objecttolerance="10"
     gridtolerance="10"
     guidetolerance="10"
     inkscape:pageopacity="0"
     inkscape:pageshadow="2"
     inkscape:window-width="1533"
     inkscape:window-height="845"
     id="namedview5256"
     showgrid="false"
     inkscape:zoom="6.8421722"
     inkscape:cx="15.507402"
     inkscape:cy="17.245985"
     inkscape:window-x="67"
     inkscape:window-y="27"
     inkscape:window-maximized="1"
     inkscape:current-layer="svg4678" />
  <defs
     id="defs4672" />
  <metadata
     id="metadata4675">
    <rdf:RDF>
      <cc:Work
         rdf:about="">
        <dc:format>image/svg+xml</dc:format>
        <dc:type
           rdf:resource="http://purl.org/dc/dcmitype/StillImage" />
        <dc:title />
      </cc:Work>
    </rdf:RDF>
  </metadata>
  <g
     transform="translate(0,-287.874)"
     id="layer1"
     style="fill:#154034;fill-opacity:1">
    <path
       id="path3724-3"
       d="m 0.55140374,296.32195 c 0.009,-0.0127 0.0311,-0.0219 0.0498,-0.0204 0.0639,0.005 0.11017,-0.1082 0.0904,-0.22148 -0.0109,-0.0624 -0.0435,-0.18095 -0.0724,-0.26346 -0.0289,-0.0825 -0.0699,-0.23234 -0.0911,-0.33294 -0.0211,-0.10061 -0.11732,-0.44776 -0.21368,-0.77147 -0.0964,-0.32372 -0.17342,-0.62795 -0.17125,-0.67607 0.003,-0.0683 0.0337,-0.124 0.13972,-0.25413 0.32308,-0.39645 0.77540996,-0.68017 1.43474996,-0.89995 0.3609,-0.12032 0.68466,-0.27589 0.73962,-0.35546 0.0341,-0.0495 -0.0404,-0.2274 -0.10447,-0.24954 -0.0668,-0.0231 -0.31005,0.0399 -0.90552,0.23455 -1.03955996,0.33979 -1.38714996,0.55974 -1.41056996,0.89262 -0.0154,0.219 -0.0318,0.10621 -0.0359000044,-0.24776 -0.004999996,-0.44391 0.0133000044,-0.87647 0.0557000044,-1.29671 0.0317,-0.31341 0.0423,-0.34879 0.20662,-0.68537 1.12759996,-2.16082 3.30915996,-3.75222 4.71372996,-3.18482 0.28739,0.10368 0.54693,0.43751 0.61898,0.55106 0.25767,0.49487 -0.14831,0.88444 -0.36496,1.20539 -0.14403,0.20972 -0.17262,0.30615 -0.10584,0.35704 0.0876,0.0668 0.19541,0.0268 0.36374,-0.13489 0.86859,-0.77676 1.81238,-0.8256 2.26941,0.0939 0.44702,0.8742 0.57311,1.93267 0.31661,3.04726 -0.0415,0.17212 0.0119,-0.0991 0,0 -0.0345,0.28816 -0.18789,0.7655 -0.35054,1.09064 -0.18007,0.35999 -0.54069,0.81607 -0.77089,0.97493 -0.0609,0.0421 -0.19187,0.17597 -0.29106,0.29767 -0.18156,0.22274 -0.26813,0.30172 -0.69192,0.63118 -0.43862,0.34098 -1.0322,0.62734 -1.24063,0.5985 -0.0549,-0.008 -0.0503,-0.0125 0.0388,-0.0389 0.0883,-0.0264 0.11141,-0.0494 0.17902,-0.17742 0.0946,-0.17924 0.12912,-0.33742 0.16045,-0.73484 0.038,-0.48221 0.0293,-0.668 -0.0556,-1.1893 -0.13222,-0.81115 -0.34032,-1.47699 -0.49952,-1.59831 -0.0465,-0.0355 -0.0924,-0.0484 -0.1154,-0.0327 -0.0839,0.0574 -0.0533,0.40137 0.0749,0.84107 0.0852,0.29217 0.19309,1.05014 0.1989,1.39695 0.005,0.31213 -0.13312,1.25034 -0.20645,1.40007 -0.0748,0.15274 -0.37716,0.27308 -0.9399,0.37408 -0.44493,0.0798 -0.67009,0.0762 -0.78677,-0.0127 -0.0435,-0.0332 -0.50387,-0.178 -0.62205,-0.19575 -0.0444,-0.007 -0.18986,-0.0499 -0.32322,-0.0958 -0.13337,-0.0461 -0.30831,-0.0948 -0.38877,-0.10827 -0.0805,-0.0134 -0.2323,-0.0467 -0.33741,-0.074 -0.10513,-0.0272 -0.25073996,-0.0436 -0.32357996,-0.0365 -0.12502,0.0122 -0.26646,-0.0475 -0.23168,-0.0979 z m 2.18495996,0.54282 c 0.21658,-0.0521 0.52883,-0.34689 0.65259,-0.81446 0.177,-0.66874 0.12878,-1.3041 -0.12271,-1.61666 l -0.0555,-0.069 -0.0738,0.13188 c -0.0743,0.13276 -0.136431,0.45323 -0.26113,1.34679 -0.0299,0.21416 -0.0825,0.5028 -0.11685,0.64142 -0.0879,0.35422 -0.0888,0.37047 -0.0226,0.37999 0.0306,0.005 -0.0379,0.009 0,0 z m -2.35279996,-5.47694 c 0.21937,-0.10528 1.00277996,-0.32976 1.25933996,-0.36085 0.40153,-0.0487 0.51831,-0.0587 0.86715,-0.075 0.39796,-0.0185 0.46569,-0.0312 0.46971,-0.0885 0.007,-0.10558 -0.27451,-0.14234 -0.87052,-0.11346 -0.43872,0.0212 -0.7622,0.0765 -1.01504,0.17348 -0.23151996,0.0887 -0.64249996,0.30952 -0.77761996,0.4177 -0.0347,0.0278 -0.0858,0.0654 -0.11357,0.0837 -0.0974,0.064 0.02,0.0399 0.18059,-0.0369 z m 6.42636996,3.82904 c 0.16022,-0.20245 0.23021,-0.57957 0.18541,-0.99897 -0.0607,-0.56784 -0.32426,-1.08059 -1.02751,-1.99873 -0.10757,-0.14044 -0.27704,-0.27779 -0.31991,-0.25927 -0.0428,0.0185 0.0466,0.26006 0.24217,0.65441 0.32296,0.65121 0.53179,1.22192 0.64839,1.77215 0.13393,0.63189 0.18838,0.8671 0.20378,0.88029 0.009,0.008 0.0397,-0.0146 0.0677,-0.0499 z"
       style="fill:#154034;fill-opacity:1;stroke-width:0.02958265" />
  </g>
</svg>
