<?xml version="1.0" encoding="UTF-8" standalone="no"?>
<svg
   xmlns:dc="http://purl.org/dc/elements/1.1/"
   xmlns:cc="http://creativecommons.org/ns#"
   xmlns:rdf="http://www.w3.org/1999/02/22-rdf-syntax-ns#"
   xmlns:svg="http://www.w3.org/2000/svg"
   xmlns="http://www.w3.org/2000/svg"
   id="svg8"
   version="1.1"
   viewBox="0 0 71.632004 84.611"
   height="84.611mm"
   width="71.632004mm">
  <defs
     id="defs2" />
  <metadata
     id="metadata5">
    <rdf:RDF>
      <cc:Work
         rdf:about="">
        <dc:format>image/svg+xml</dc:format>
        <dc:type
           rdf:resource="http://purl.org/dc/dcmitype/StillImage" />
        <dc:title></dc:title>
      </cc:Work>
    </rdf:RDF>
  </metadata>
  <g
     transform="translate(0,-212.389)"
     id="layer1">
    <path
       id="path3724"
       d="m 29.023421,296.73382 c 0,-0.13693 0.11906,-0.32255 0.26458,-0.41249 0.50017,-0.30912 0.26359,-1.35715 -0.46302,-2.05112 -0.40018,-0.38221 -1.24907,-1.0444 -1.88642,-1.47155 -0.63736,-0.42715 -1.70892,-1.2648 -2.38125,-1.86146 -0.67234,-0.59666 -3.1641,-2.53129 -5.53724,-4.2992 -2.37315,-1.7679 -4.50333,-3.50208 -4.73374,-3.85374 -0.32722,-0.4994 -0.38511,-1.05699 -0.26442,-2.54698 0.36767,-4.53906 2.27195,-8.97747 6.04029,-14.07845 2.06271,-2.79215 3.6689,-5.63366 3.66934,-6.49139 2.7e-4,-0.53235 -1.4647,-1.38871 -2.05347,-1.20037 -0.61429,0.19651 -2.09702,1.95052 -5.52011,6.53011 -5.97592,7.99491 -7.4294102,11.41931 -5.89838,13.89657 1.00726,1.62978 0.30802,0.92137 -1.5361302,-1.55627 -2.31268,-3.10714 -4.39007,-6.26255 -6.22749,-9.45912 -1.37037,-2.38403 -1.4724,-2.69136 -1.97654002,-5.95313 -2.69728498,-21.33149 5.34498502,-44.31344 18.67645022,-47.86502 2.66416,-0.81434 6.300297,0.14677 7.416707,0.56097 4.44702,2.10874 3.428851,7.04535 3.464583,10.47848 0.005,2.25647 0.2867,3.09146 1.04292,3.09146 0.9923,0 1.58768,-0.86247 2.00912,-2.91041 2.468906,-10.16138 9.224037,-15.58577 17.32547,-11.55103 7.7953,3.76907 14.15229,10.56687 17.9569,19.82012 0.57337,1.43918 -0.4194,-0.76351 0,0 1.21993,2.22089 2.52591,6.41825 2.98397,9.59028 0.50713,3.51183 0.1662,8.67419 -0.72877,11.03522 -0.23676,0.62459 -0.52291,2.27565 -0.63589,3.66903 -0.2068,2.55045 -0.44494,3.57426 -1.90317,8.18221 -1.50923,4.76912 -4.44853,9.98642 -6.14333,10.90451 -0.44678,0.24203 -0.43597,0.18301 0.0886,-0.48388 0.52015,-0.66125 0.57451,-0.94803 0.42017,-2.21664 -0.21596,-1.77517 -0.76971,-3.07832 -2.57262,-6.05409 -2.18752,-3.6106 -3.20366,-4.87621 -6.50419,-8.10097 -5.13577,-5.01789 -10.09059,-8.60101 -11.89364,-8.60101 -0.52632,0 -0.93381,0.15526 -1.02394,0.39016 -0.32895,0.85722 1.65986,3.12189 4.86328,5.53784 2.12864,1.60538 6.8117,6.37836 8.63103,8.79676 1.6374,2.17657 5.41569,9.54813 5.63825,11.0004 0.22703,1.48149 -1.40089,3.95874 -5.06055,7.70076 -2.89356,2.95869 -4.58344,4.14491 -5.9048,4.14491 -0.49221,0 -4.6516,1.45458 -5.61964,1.96525 -0.3638,0.19191 -1.6643,0.6701 -2.89,1.06264 -1.22571,0.39255 -2.77373,0.98998 -3.44006,1.32763 -0.66633,0.33766 -1.9639,0.91965 -2.88349,1.29331 -0.9196,0.37366 -2.08438,1.04147 -2.58842,1.48403 -0.86514,0.7596 -2.22094,1.09882 -2.22094,0.55567 z m 18.99792,-7.92524 c 1.34141,-1.53295 2.14865,-5.29641 0.67255,-9.26513 -2.11117,-5.67623 -5.72318,-9.90452 -9.1906,-10.75873 l -0.76493,-0.18845 0.12766,1.32857 c 0.12852,1.33751 1.30871,3.93565 4.9596,10.91837 0.87498,1.67349 1.96294,3.9952 2.41769,5.15937 1.16206,2.97488 1.23813,3.09494 1.77803,2.806 0.25018,-0.13389 -0.23463,0.26814 0,0 z M 2.5069808,262.78541 c 1.08902,-1.92425 5.7543,-7.7262 7.4993702,-9.32656 2.73119,-2.50471 3.54627,-3.20452 6.05249,-5.19655 2.85911,-2.27251 3.29652,-2.72715 3.0334,-3.15289 -0.48566,-0.78582 -2.76662,0.47207 -7.04261,3.88381 -3.1474402,2.51129 -5.2653502,4.64279 -6.6456102,6.68825 -1.26386,1.87295 -3.18375,5.64415 -3.63265,7.13553 -0.11522,0.38281 -0.30166,0.92391 -0.41431,1.20244 -0.39505002,0.97682 0.35302,0.17403 1.14992,-1.23403 z m 67.3106702,-7.54062 c 0.15245,-2.29223 -1.25949,-5.33273 -3.74008,-8.05399 -3.35855,-3.68442 -7.94116,-5.8875 -17.86337,-8.58777 -1.51776,-0.41306 -3.47905,-0.47111 -3.70248,-0.10959 -0.22306,0.36092 1.67779,1.58614 5.14921,3.31899 5.73248,2.86151 10.20539,5.76887 13.88896,9.02771 4.23039,3.74261 5.83914,5.11094 6.02093,5.12113 0.10914,0.006 0.22022,-0.3163 0.24683,-0.71648 z"
       style="fill:#005f00;stroke-width:0.26458332;fill-opacity:1" />
  </g>
</svg>
