<?xml version="1.0" encoding="UTF-8" standalone="no"?>
<svg
   xmlns:dc="http://purl.org/dc/elements/1.1/"
   xmlns:cc="http://creativecommons.org/ns#"
   xmlns:rdf="http://www.w3.org/1999/02/22-rdf-syntax-ns#"
   xmlns:svg="http://www.w3.org/2000/svg"
   xmlns="http://www.w3.org/2000/svg"
   id="svg8"
   version="1.1"
   viewBox="0 0 440.203 126.261"
   height="126.261mm"
   width="440.203mm">
  <defs
     id="defs2" />
  <metadata
     id="metadata5">
    <rdf:RDF>
      <cc:Work
         rdf:about="">
        <dc:format>image/svg+xml</dc:format>
        <dc:type
           rdf:resource="http://purl.org/dc/dcmitype/StillImage" />
        <dc:title></dc:title>
      </cc:Work>
    </rdf:RDF>
  </metadata>
  <g
     transform="translate(0,-170.739)"
     id="layer1">
    <flowRoot
       transform="scale(0.26458333)"
       style="font-style:normal;font-weight:normal;font-size:40px;line-height:1.25;font-family:sans-serif;letter-spacing:0px;word-spacing:0px;fill:#74bf04;fill-opacity:0.66666667;stroke:none"
       id="flowRoot815"
       xml:space="preserve"><flowRegion
         style="fill:#74bf04;fill-opacity:0.66666667"
         id="flowRegion817"><rect
           style="fill:#74bf04;fill-opacity:0.66666667"
           y="76.805397"
           x="100"
           height="280"
           width="500"
           id="rect819" /></flowRegion><flowPara
         id="flowPara821"></flowPara></flowRoot>    <path
       id="path896"
       d="m 330.10546,233.9056 c 0,-3.71079 -0.0985,-6.74688 -0.21875,-6.74688 -0.50073,-1.67034 0.0898,-1.52805 -1.79097,-1.67394 -0.98631,-0.0921 -1.84867,-0.11212 -1.9163,-0.0445 -0.0676,0.0677 0.0114,3.11159 0.17574,6.76431 0.25366,5.63854 0.24178,6.7777 -0.0786,7.54458 -0.30303,0.72522 -0.52351,0.90247 -1.11853,0.89922 -0.40759,-0.002 -0.87209,-0.0915 -1.03222,-0.19844 -0.95885,-0.64024 -0.9933,-1.19265 -1.04309,-16.73084 -0.053,-16.51722 -0.0851,-16.13959 1.37522,-16.13959 1.77374,0 2.09751,1.72128 1.83518,9.75602 l -0.18487,5.66166 0.84106,-0.16821 c 0.46257,-0.0925 1.00476,-0.16822 1.20486,-0.16822 l 1.68461,-0.66145 0.005,-1.7198 c 0.003,-0.94588 -0.1369,-4.02967 -0.30973,-6.85287 l -0.31424,-5.13308 0.74514,-0.64095 c 0.74549,-0.64124 1.67987,-0.66284 2.41139,-0.0557 0.2672,0.22177 0.5365,7.16681 1.05087,27.10244 l 0.14338,5.55624 c -4.90319,3.49823 -3.46717,-5.39144 -3.46515,-6.35 z m 30.86503,7.68692 c -1.40693,-0.50588 -2.19446,-1.32217 -3.07131,-3.18345 -1.63272,-3.46574 -2.27124,-9.0089 -2.04256,-17.73264 0.16833,-6.42204 0.56002,-8.94754 1.7195,-11.08657 1.01986,-1.88142 1.71746,-2.1038 4.51866,-1.44038 2.7832,0.65917 3.21289,0.94665 4.2046,2.81315 1.62208,3.05297 2.10616,6.7725 2.02171,15.53463 -0.0538,5.58628 -0.32102,7.95763 -1.19777,10.63113 -1.19938,3.65725 -3.58437,5.38765 -6.15283,4.46413 z m 2.07227,-3.42622 c 1.83104,-1.83104 2.3555,-7.77891 1.70381,-19.32305 -0.22696,-4.02029 -0.3827,-5.20418 -0.78963,-6.00179 -0.63288,-1.24058 -1.44319,-1.82233 -2.53833,-1.82233 -1.64034,0 -1.76445,0.38526 -2.13106,6.61459 -0.49824,8.46601 0.0311,16.43428 1.28558,19.3503 0.81262,1.88896 1.45529,2.19663 2.46963,1.18228 z m -304.532088,3.42291 c -0.14552,-0.0532 -0.599042,-0.17068 -1.007826,-0.26111 -1.163341,-0.25732 -2.941563,-2.08623 -3.724349,-3.83051 -1.707431,-3.80466 -2.37047,-8.73318 -2.369755,-17.61491 4.24e-4,-5.16777 0.08368,-6.4734 0.552142,-8.65831 1.266613,-5.90747 3.566288,-8.50047 7.562776,-8.52743 1.491638,-0.0101 1.872325,0.0774 2.182812,0.50141 0.524211,0.71589 0.469284,1.37758 -0.167189,2.01405 -0.44799,0.44799 -0.743486,0.51324 -1.684942,0.37206 -2.399265,-0.35979 -3.730475,1.31665 -4.583873,5.77264 -0.537445,2.80626 -0.633985,16.28004 -0.137101,19.13467 0.448948,2.57922 1.268904,5.13522 1.99375,6.21498 1.34385,2.00186 3.691912,2.33953 5.273134,0.75831 0.6237,-0.6237 0.74209,-0.92946 0.632772,-1.63419 -0.07396,-0.47682 -0.207583,-1.55155 -0.296932,-2.3883 l -0.162454,-1.52135 h -1.395163 c -1.015592,0 -1.514293,-0.13164 -1.833044,-0.48385 -0.517032,-0.57132 -0.575936,-1.72303 -0.107153,-2.0951 0.591111,-0.46917 2.248439,-0.88911 3.633413,-0.92066 2.201882,-0.0502 2.310042,0.16399 3.091766,6.12132 0.366734,2.79479 0.592731,5.3765 0.502217,5.73713 -0.305352,1.21662 -2.344725,1.35478 -3.177941,0.21529 -0.256569,-0.35088 -0.440836,-0.31906 -1.47677,0.25501 -1.139152,0.63128 -2.748789,1.04041 -3.30029,0.83885 z m 21.06475,-0.3772 c -0.766001,-0.766 -1.476706,-2.97696 -2.263574,-7.04183 -0.394372,-2.03729 -0.947031,-4.77573 -1.228127,-6.08542 -0.281096,-1.30969 -0.510262,-2.64914 -0.509254,-2.97656 0.0011,-0.32742 -0.125053,-0.59531 -0.280133,-0.59531 -1.355589,4.27326 1.594117,12.45346 0.312774,16.07343 -0.441692,1.05623 -1.501024,1.17623 -2.335721,0.26459 -0.519731,-0.56764 -0.558817,-1.08113 -0.840838,-11.04636 -0.425909,-15.04957 -0.443353,-20.65749 -0.06645,-21.36175 0.480313,-0.89747 1.213155,-1.16555 2.661144,-0.97347 1.985455,0.26338 3.814019,1.4304 4.517181,2.88293 0.52968,1.09418 0.575284,1.52419 0.485204,4.5753 -0.0981,3.32258 -0.114364,3.39905 -1.216417,5.71801 l -1.116991,2.35038 1.458092,6.2001 c 0.805528,3.22098 1.995238,5.77066 2.622258,8.31163 0.230424,0.93378 0.384857,1.86639 0.416307,2.8307 0,0.64767 -0.814409,1.37242 -1.542187,1.37242 -0.315963,0 -0.798936,-0.22445 -1.073272,-0.49879 z m -3.897659,-20.73402 c 0.689911,-1.18815 1.487037,-4.52073 1.484558,-6.20655 -0.003,-2.01998 -0.813519,-3.78147 -1.740037,-3.78147 -0.318699,0 -0.370504,0.72272 -0.317675,4.43177 0.03472,2.43748 -0.03401,4.93779 -0.152725,5.55625 -0.118716,0.61846 -0.150871,1.12448 -0.07145,1.12448 0.07942,0 0.438216,-0.50602 0.797333,-1.12448 z m 208.420577,20.73402 c -0.766,-0.766 -1.47671,-2.97696 -2.26358,-7.04183 -0.39437,-2.03729 -0.94703,-4.77573 -1.22812,-6.08542 -0.2811,-1.30969 -0.51027,-2.64914 -0.50926,-2.97656 0.001,-0.32742 -0.12505,-0.59531 -0.28013,-0.59531 -0.19366,0 -0.23041,1.09791 -0.11733,3.50573 0.2041,4.34622 0.63785,11.22952 0.72491,11.50375 0.0356,0.11223 -0.097,0.59101 -0.29481,1.06395 -0.44169,1.05623 -1.50102,1.17623 -2.33572,0.26459 -0.51973,-0.56764 -0.55882,-1.08113 -0.84083,-11.04636 -0.42591,-15.04957 -0.44336,-20.65749 -0.0665,-21.36175 0.48031,-0.89747 1.21315,-1.16555 2.66114,-0.97347 1.98546,0.26338 3.81402,1.4304 4.51718,2.88293 0.52968,1.09418 0.57529,1.52419 0.48521,4.5753 -0.0981,3.32258 -0.11437,3.39905 -1.21642,5.71801 l -1.11699,2.35038 1.45809,6.2001 c 0.99007,3.37184 2.93973,9.24715 3.03857,11.14233 0,0.64767 -0.81441,1.37242 -1.54219,1.37242 -0.31596,0 -0.79894,-0.22445 -1.07327,-0.49879 z m -3.89766,-20.73402 c 0.68991,-1.18815 1.48704,-4.52073 1.48456,-6.20655 -0.003,-2.01998 -0.81352,-3.78147 -1.74004,-3.78147 -0.3187,0 -0.3705,0.72272 -0.31768,4.43177 0.0347,2.43748 -0.034,4.93779 -0.15272,5.55625 -0.11872,0.61846 -0.15087,1.12448 -0.0714,1.12448 0.0794,0 0.43821,-0.50602 0.79733,-1.12448 z m -191.576357,20.7184 c -0.788755,-0.34045 -1.225929,-1.24764 -1.042707,-2.16374 -0.300163,-5.75889 0.03658,-11.12776 0.07089,-15.80751 l 0.100441,-14.45496 0.673306,-0.59532 c 0.718865,-0.63559 1.68053,-0.77566 2.143927,-0.31226 0.155673,0.15567 0.983157,0.31349 1.838854,0.35071 1.638694,0.0713 3.104801,0.65618 3.368728,1.34397 0.225708,0.58818 -0.310666,1.61184 -1.052639,2.00893 -0.534213,0.28591 -0.873345,0.26597 -2.11069,-0.12407 -0.810818,-0.25559 -1.508427,-0.42555 -1.550244,-0.37771 -0.04182,0.0478 -0.132855,2.14082 -0.202306,4.65106 l -0.126275,4.56406 h 1.380498 c 0.995982,0 1.574676,0.15275 2.077638,0.54837 0.801047,0.63011 0.872562,1.25535 0.275622,2.4097 -0.413851,0.80031 -0.449935,0.81255 -1.984375,0.67341 l -1.562857,-0.14171 0.004,6.92022 c 0.0021,3.80612 0.109654,7.08701 0.238723,7.29087 0.173898,0.27465 0.57816,0.32996 1.560989,0.21356 1.664899,-0.19718 3.139085,0.18878 3.358227,0.87923 0.235309,0.7414 -0.07616,1.52881 -0.748136,1.89131 -0.721514,0.38921 -5.930228,0.56918 -6.711662,0.23188 z m 14.022917,0 c -0.78875,-0.34045 -1.22593,-1.24764 -1.04271,-2.16374 -0.30585,-5.52723 0.0372,-11.21626 0.0709,-15.80751 l 0.10044,-14.45496 0.67331,-0.59532 c 0.71886,-0.63559 1.68053,-0.77566 2.14393,-0.31226 0.15567,0.15567 0.98315,0.31349 1.83885,0.35071 1.63869,0.0713 3.1048,0.65618 3.36873,1.34397 0.22571,0.58818 -0.31067,1.61184 -1.05264,2.00893 -0.53421,0.28591 -0.87335,0.26597 -2.11069,-0.12407 -0.81082,-0.25559 -1.50843,-0.42555 -1.55024,-0.37771 -0.0418,0.0478 -0.13286,2.14082 -0.20231,4.65106 l -0.12628,4.56406 h 1.3805 c 0.99598,0 1.57468,0.15275 2.07764,0.54837 0.80105,0.63011 0.87256,1.25535 0.27562,2.4097 -0.41385,0.80031 -0.44993,0.81255 -1.98437,0.67341 l -1.56286,-0.14171 0.004,6.92022 c 0.002,3.80612 0.10965,7.08701 0.23872,7.29087 0.1739,0.27465 0.57816,0.32996 1.56099,0.21356 1.6649,-0.19718 3.13909,0.18878 3.35823,0.87923 0.23531,0.7414 -0.0762,1.52881 -0.74814,1.89131 -0.72151,0.38921 -5.93022,0.56918 -6.71166,0.23188 z m 77.25535,-0.34548 c -0.44305,-0.48758 -0.57188,-1.0981 -0.71185,-3.37344 -0.30966,-5.03372 -3.09952,-20.64596 -4.65696,-26.06062 -0.65882,-2.29047 -0.66959,-3.10204 -0.0486,-3.664 0.63674,-0.57625 1.44454,-0.55529 1.99388,0.0517 0.75801,0.83759 2.74828,9.59658 4.30759,18.95728 l 0.74926,4.49791 0.21796,-1.71979 c 0.82347,-6.49754 1.6949,-11.99867 2.66144,-16.80105 1.07345,-5.3335 1.14755,-5.57035 1.84853,-5.90817 0.62627,-0.30181 0.82244,-0.29152 1.37762,0.0722 0.89456,0.58614 0.84967,1.35723 -0.40844,7.01519 -1.25051,5.62374 -1.724,8.5095 -2.12909,12.97595 -0.16497,1.81901 -0.57476,4.43838 -0.91064,5.82083 -0.33588,1.38245 -0.6878,3.33279 -0.78204,4.3341 -0.23565,2.50383 -0.71097,3.53334 -1.85128,4.0098 -1.15095,0.48089 -1.01602,0.49782 -1.65736,-0.20796 z m -29.29958,-0.28934 c -0.49556,-0.49556 -0.67632,-0.94987 -0.66962,-1.68301 0.005,-0.55232 -0.19849,-8.77362 -0.4523,-18.26955 -0.42873,-16.04066 -0.43052,-17.29629 -0.0252,-17.70166 0.48167,-0.48167 1.903,-0.54646 2.42807,-0.11069 0.25388,0.2107 0.37841,2.64753 0.51131,10.00519 0.18319,10.14201 0.64156,23.05439 0.85482,24.08031 0.11278,0.54257 0.27398,0.59531 1.81959,0.59531 2.12913,0 2.6485,0.41038 2.44447,1.9315 -0.0769,0.57365 -0.27141,1.17451 -0.43215,1.33525 -0.16086,0.16085 -1.53052,0.3381 -3.04625,0.3942 -2.66725,0.0987 -2.77537,0.0806 -3.43279,-0.57685 z m 85.02053,0.35766 c -3.50564,-0.60905 -4.28185,-2.38782 -5.03396,-11.53584 -0.28594,-3.47792 -0.26737,-4.73843 0.14399,-9.77094 0.52265,-6.3941 0.76874,-7.65907 1.84847,-9.50147 0.89158,-1.52138 2.75789,-2.52479 4.70359,-2.52884 1.97025,-0.004 2.59692,0.3432 2.59692,1.43928 0,0.76819 -0.13998,0.99818 -0.82225,1.35099 -0.46004,0.2379 -1.09404,0.35699 -1.43925,0.27035 -1.37371,-0.34478 -2.46008,1.57448 -3.17284,5.60539 -0.56439,3.19181 -0.82938,11.08141 -0.41176,12.25979 0.17537,0.49485 0.43104,2.25021 0.56814,3.90079 0.29529,3.55488 0.74543,4.70615 2.05384,5.25283 2.26578,0.94671 2.99718,-0.4106 3.16448,-5.87263 l 0.11347,-3.70417 h -1.50352 c -1.71997,0 -2.39959,-0.55145 -2.11951,-1.71979 0.28311,-1.18094 0.83514,-1.38351 3.3975,-1.24673 2.88495,0.154 3.78724,0.66403 3.66801,2.07338 -0.0416,0.49123 -0.14183,3.18611 -0.22282,5.98864 l -0.14726,5.09549 -1.1205,0.91816 c -1.91536,1.5695 -3.94472,2.12839 -6.26474,1.72532 z m 25.19304,0.002 c -0.49176,-0.11891 -1.00065,-0.37693 -1.13087,-0.57336 -0.13154,-0.19843 -0.20453,-4.47269 -0.16423,-9.61757 0.0399,-5.09323 0.0276,-12.83229 -0.0272,-17.19792 -0.0849,-6.75451 -0.0382,-8.08397 0.31329,-8.92027 0.47711,-1.13523 1.19408,-1.41716 2.98105,-1.17223 5.69266,0.78026 7.95967,8.11815 4.44806,14.3975 l -0.93704,1.67558 0.90273,1.11075 c 2.40814,2.96306 3.19151,5.35536 3.18299,9.72045 -0.01,4.98712 -0.83934,6.96793 -3.73285,8.91268 -2.16281,1.45366 -4.24809,2.04837 -5.83592,1.66439 z m 3.40285,-3.97078 c 1.28496,-0.65554 2.3167,-1.98122 2.80521,-3.60444 1.01519,-3.37322 -0.21958,-9.58449 -2.15782,-10.85448 -0.40156,-0.26311 -1.19219,-0.48156 -1.75696,-0.48543 l -1.02686,-0.007 0.13909,1.98438 c 0.33845,4.82881 0.3822,6.95501 0.20598,10.01025 -0.10353,1.79486 -0.13862,3.31291 -0.078,3.37344 0.23349,0.23309 0.87675,0.0897 1.86935,-0.41667 z m -0.6416,-19.44713 c 1.55803,-1.65199 2.74349,-5.97174 2.18947,-7.97826 -0.32015,-1.15956 -1.78637,-2.73964 -2.54214,-2.73964 -0.49488,0 -0.53157,0.25083 -0.68698,4.69636 -0.0903,2.58299 -0.23664,5.20237 -0.32519,5.82083 -0.20227,1.41248 0.17027,1.46724 1.36484,0.20062 z m 46.12904,23.41562 c -3.50563,-0.60906 -4.28185,-2.38783 -5.03396,-11.53585 -0.28594,-3.47791 -0.26736,-4.73842 0.14399,-9.77093 0.52265,-6.39411 0.76875,-7.65907 1.84847,-9.50148 0.89159,-1.52138 2.7579,-2.52478 4.7036,-2.52884 1.97024,-0.004 2.59691,0.34321 2.59691,1.43928 0,0.76819 -0.13999,0.99818 -0.82225,1.351 -0.46003,0.23789 -1.09404,0.35698 -1.43925,0.27034 -1.37371,-0.34478 -2.46008,1.57449 -3.17284,5.60539 -0.56439,3.19182 -0.82937,11.08141 -0.41176,12.25979 0.17538,0.49486 0.43104,2.25022 0.56815,3.90079 0.29529,3.55489 0.74542,4.70615 2.05383,5.25284 2.2658,0.94671 2.99719,-0.41061 3.16448,-5.87264 l 0.11348,-3.70416 h -1.50353 c -1.71997,0 -2.39959,-0.55146 -2.1195,-1.71979 0.28311,-1.18095 0.83514,-1.38352 3.3975,-1.24674 2.88494,0.15401 3.78725,0.66404 3.668,2.07339 -0.0416,0.49122 -0.14182,3.18611 -0.22281,5.98863 -0.35104,2.88187 -0.51072,4.16177 -1.66564,5.96393 -1.91535,1.5695 -3.54685,2.17811 -5.86687,1.77505 z m -192.50755,-0.28623 c -1.20039,-0.44627 -1.21562,-0.63578 -1.24189,-15.44502 -0.0267,-15.0373 0.39294,-15.84873 1.03441,-16.6333 0.64146,-0.78457 1.07242,-0.76759 1.49888,-0.73366 0.42647,0.0339 1.34229,0.63049 1.40754,1.23652 0.03,0.27872 0.12127,0.68536 0.2028,0.90364 0.0815,0.21828 0.47461,1.4089 0.8735,2.64583 0.3989,1.23693 1.66952,4.51115 2.82361,7.27604 2.41281,5.78044 3.36118,8.56562 4.04277,11.8728 0.37112,1.80072 0.53296,2.21509 0.69454,1.7783 0.24235,-0.65515 0.74638,-21.8781 0.55517,-23.37646 -0.27158,-2.12816 1.68513,-3.13304 2.90481,-1.49177 0.49567,0.66701 0.50282,0.95154 0.22259,8.86355 -0.47774,13.4887 -1.12546,22.19944 -1.69293,22.76691 0,0 -0.15479,-0.98618 0,0 0,0.41346 -2.23788,0.73432 -2.7495,0.40918 -0.48278,-0.30681 -2.43822,-5.62763 -1.63085,-3.64394 -2.13961,-6.28079 -3.29109,-10.59737 -4.77726,-15.32659 -1.04257,-3.34698 -2.00868,-6.32354 -2.14692,-6.61458 -0.16536,-0.34814 -0.22715,1.34103 -0.1806,4.93765 -0.0559,6.17539 -0.022,5.51119 -0.0984,9.45085 0.14629,3.21383 0.31074,5.30953 0.39461,7.07172 0.13469,2.82988 0.0989,3.24995 -0.30629,3.5978 -0.66546,0.57125 -1.17566,0.6979 -1.83055,0.45443 z m 47.14469,-0.0205 c -0.43657,-0.14899 -1.07908,-0.34972 -1.42781,-0.44606 -0.34872,-0.0964 -0.76213,-0.37925 -0.91867,-0.62867 -0.40315,-0.64234 0.60199,-1.94296 1.45833,-1.88703 l 0.62356,0.0407 0.0137,-13.49051 0.0137,-13.49052 -1.15587,0.17333 c -1.58639,0.2379 -2.50774,-0.35056 -2.39287,-1.52828 0.12714,-1.30346 0.90587,-1.57034 4.05522,-1.38975 1.45784,0.0836 3.09607,0.27499 3.64052,0.42532 2.06602,0.57046 2.29974,2.63699 0.33983,3.00467 -0.52328,0.0982 -1.06846,0.10616 -1.2115,0.0178 -0.28888,-0.17854 -0.30679,12.8962 -0.0286,20.90486 l 0.16541,4.7625 1.56917,0.16852 c 2.17378,0.23344 2.87579,1.27035 1.77796,2.62612 -0.39309,0.48544 -0.79642,0.61865 -2.05052,0.67721 -0.85865,0.0401 -2.03744,0.1309 -2.61952,0.20179 -0.58209,0.0709 -1.41552,0.007 -1.85209,-0.14199 z m 31.75,0 c -0.43656,-0.14899 -1.07908,-0.34972 -1.42781,-0.44606 -0.34872,-0.0964 -0.76212,-0.37925 -0.91867,-0.62867 -0.40315,-0.64234 0.60199,-1.94296 1.45833,-1.88703 l 0.62356,0.0407 0.0137,-13.49051 0.0137,-13.49052 -1.15586,0.17333 c -1.5864,0.2379 -2.50775,-0.35056 -2.39288,-1.52828 0.12714,-1.30346 0.90587,-1.57034 4.05522,-1.38975 1.45784,0.0836 3.09607,0.27499 3.64052,0.42532 2.06602,0.57046 2.29974,2.63699 0.33983,3.00467 -0.52328,0.0982 -1.06846,0.10616 -1.2115,0.0178 -0.28888,-0.17854 -0.30678,12.8962 -0.0286,20.90486 l 0.16541,4.7625 1.56917,0.16852 c 2.17378,0.23344 2.87579,1.27035 1.77796,2.62612 -0.39308,0.48544 -0.79642,0.61865 -2.05052,0.67721 -0.85865,0.0401 -2.03744,0.1309 -2.61952,0.20179 -0.58209,0.0709 -1.41552,0.007 -1.85209,-0.14199 z m 12.91573,0.0204 c -1.20039,-0.44628 -1.21563,-0.63578 -1.2419,-15.44502 -0.0267,-15.03731 0.0209,-15.66601 1.30381,-17.23515 0.61027,-1.33931 -0.32776,0.88092 0,0 1.93189,-0.9715 2.58941,0.66233 2.63703,1.1047 0.67406,1.45962 0.59344,2.11787 1.0763,3.54947 0.39889,1.23693 1.66951,4.51115 2.82361,7.27605 2.41281,5.78043 3.36118,8.56562 4.04277,11.87279 0.37111,1.80072 0.53295,2.2151 0.69453,1.77831 0.24236,-0.65516 0.74639,-21.87811 0.55517,-23.37646 -0.27158,-2.12817 1.68514,-3.13304 2.90482,-1.49177 0.49567,0.667 0.50281,0.95153 0.22259,8.86354 -0.47774,13.48871 -1.12547,22.19945 -1.69294,22.76692 -0.94759,0.81663 -1.39237,1.18897 -2.74949,0.40929 -0.48278,-0.30681 -1.37383,-1.91723 -1.223,-2.49402 -2.34158,-6.14203 -3.57047,-11.34813 -5.18512,-16.47651 -1.04256,-3.34698 -2.00868,-6.32354 -2.14692,-6.61458 -0.16536,-0.34814 -0.22714,1.34103 -0.1806,4.93765 -0.21623,7.25626 -0.0668,9.3373 0.29622,16.52257 0.13469,2.82988 0.0989,3.24995 -0.3063,3.5978 -0.66546,0.57125 -1.17565,0.6979 -1.83055,0.45443 z m 84.71552,-0.0204 c -0.43657,-0.14899 -1.07908,-0.34972 -1.42781,-0.44606 -0.34872,-0.0964 -0.76213,-0.37925 -0.91867,-0.62867 -0.40315,-0.64234 0.60199,-1.94296 1.45833,-1.88703 l 0.62356,0.0407 0.0137,-13.49051 0.0137,-13.49052 -1.15587,0.17333 c -1.5864,0.2379 -2.50775,-0.35056 -2.39288,-1.52828 0.12714,-1.30346 0.90587,-1.57034 4.05522,-1.38975 1.45784,0.0836 3.09607,0.27499 3.64053,0.42532 2.06601,0.57046 2.29973,2.63699 0.33982,3.00467 -0.52328,0.0982 -1.06846,0.10616 -1.2115,0.0178 -0.28888,-0.17854 -0.30678,12.8962 -0.0286,20.90486 l 0.16541,4.7625 1.56917,0.16852 c 2.17378,0.23344 2.87579,1.27035 1.77796,2.62612 -0.39309,0.48544 -0.79642,0.61865 -2.05052,0.67721 -0.85866,0.0401 -2.03744,0.1309 -2.61952,0.20179 -0.58209,0.0709 -1.41553,0.007 -1.85209,-0.14199 z m 82.50115,0.0204 c -1.20038,-0.44628 -1.21562,-0.63578 -1.2419,-15.44502 -0.0267,-15.03731 -0.0906,-16.24852 1.30382,-17.23515 1.39437,-0.98663 2.20921,0.0518 2.63702,1.1047 0.28474,1.17411 0.68635,2.3413 1.0763,3.54947 0.39888,1.23693 1.66952,4.51115 2.8236,7.27605 2.41282,5.78043 3.36119,8.56562 4.04278,11.87279 0.37111,1.80072 0.53296,2.2151 0.69454,1.77831 0.24235,-0.65516 0.74639,-21.87811 0.55517,-23.37646 -0.27159,-2.12817 1.68513,-3.13304 2.90481,-1.49177 0.49567,0.667 0.50281,0.95153 0.22259,8.86354 -0.47776,13.48871 -1.12546,22.19945 -1.69293,22.76692 -0.98898,1.03743 -1.98148,0.83786 -2.7495,0.40928 -0.48279,-0.30681 -0.83789,-1.63868 -1.17326,-2.49402 -2.1036,-5.36504 -3.81351,-11.95408 -5.23487,-16.47651 -1.04256,-3.34698 -2.00866,-6.32354 -2.14691,-6.61458 -0.16536,-0.34814 -0.22714,1.34103 -0.1806,4.93765 -0.0559,6.17547 0.11916,5.67819 -0.0626,9.5344 0.2776,2.16337 0.27495,5.22598 0.35882,6.98817 0.1347,2.82988 0.0989,3.24995 -0.30628,3.5978 -0.66545,0.57125 -1.17565,0.6979 -1.83055,0.45443 z m -32.12195,-0.58389 c -0.34893,-0.26726 -0.45008,-1.22613 -0.59227,-5.61398 -0.0943,-2.91042 -0.37481,-9.42418 -0.62333,-14.47503 l -0.45188,-9.18337 -1.8514,-0.18244 c -1.97762,-0.19487 -3.20077,-0.95862 -3.02196,-1.88698 0.20865,-1.08347 1.09622,-1.20709 7.17788,-0.99979 6.16291,0.21009 6.53063,0.29996 6.53063,1.5961 0,1.04207 -0.92183,1.45131 -3.26914,1.45131 h -2.09309 l 0.18484,4.69636 c 0.10165,2.58299 0.29384,6.36323 0.42709,8.40052 0.13327,2.03729 0.32231,6.3317 0.4201,9.54313 0,0 0.2709,3.91049 0.17783,5.83895 -0.58611,0.96157 -2.28935,1.33422 -3.0153,0.81523 z"
       style="fill:#74bf04;fill-opacity:1;stroke-width:0.26458332" />
    <flowRoot
       transform="scale(0.26458333)"
       style="font-style:normal;font-weight:normal;font-size:40px;line-height:1.25;font-family:sans-serif;letter-spacing:0px;word-spacing:0px;fill:#74bf04;fill-opacity:0.66666667;stroke:none"
       id="flowRoot888"
       xml:space="preserve"><flowRegion
         style="fill:#74bf04;fill-opacity:0.66666667"
         id="flowRegion890"><rect
           style="fill:#74bf04;fill-opacity:0.66666667"
           y="291.09113"
           x="74.285713"
           height="525.71429"
           width="660"
           id="rect892" /></flowRegion><flowPara
         id="flowPara894"></flowPara></flowRoot>    <g
       transform="matrix(3.6738576,0,0,3.6738576,386.37314,-801.34216)"
       id="layer1-1">
      <path
         id="path3724"
         d="m 13.659148,297.76279 c -0.01615,-0.0221 -0.0573,-0.038 -0.09143,-0.0354 -0.117295,0.01 -0.202724,-0.18821 -0.167176,-0.3861 0.01957,-0.10895 0.07864,-0.31615 0.131239,-0.46038 0.0526,-0.14425 0.126948,-0.40603 0.165206,-0.5818 0.03824,-0.17574 0.212684,-0.78238 0.387615,-1.34808 0.17493,-0.56572 0.314578,-1.09731 0.310326,-1.1813 -0.006,-0.1193 -0.06247,-0.21627 -0.257777,-0.44283 -0.594964,-0.69017 -1.426383,-1.18277 -2.637221,-1.56253 -0.662777,-0.20789 -1.25762,-0.47755 -1.35889,-0.61612 -0.06287,-0.0861 0.07288,-0.39723 0.19023,-0.43627 0.122459,-0.0406 0.56903,0.0678 1.662548,0.40406 1.909047,0.58698 2.547974,0.96889 2.592828,1.54988 0.02951,0.38224 0.05893,0.18523 0.06464,-0.43275 0.0071,-0.775 -0.02943,-1.53005 -0.109626,-2.26343 -0.05983,-0.54697 -0.07958,-0.60867 -0.382963,-1.19528 -2.080917,-3.76558 -6.0921676,-6.53077 -8.6656784,-5.53181 -0.5266285,0.18272 -1.0008627,0.76706 -1.132412,0.96572 -0.4698726,0.86548 0.277123,1.54315 0.6764123,2.10218 0.2654224,0.36526 0.3184133,0.53345 0.1962038,0.62267 -0.1603649,0.11714 -0.3583436,0.0479 -0.6680795,-0.23331 -1.5978979,-1.35086 -3.3295836,-1.43047 -4.16279739,0.17743 -0.81508489,1.52884 -1.04038126,3.37747 -0.56347911,5.32176 0.0771363,0.30024 -0.0223116,-0.17288 0,0 0.0648823,0.50285 0.34905412,1.33526 0.6492856,1.90192 0.33238939,0.62738 0.9965767,1.42144 1.4197799,1.69739 0.1119419,0.0731 0.3530004,0.30608 0.5356587,0.51794 0.3343386,0.38777 0.4936184,0.52514 1.2729532,1.09776 0.806596,0.59266 1.8971802,1.08902 2.2793943,1.03743 0.1007682,-0.0137 0.092054,-0.022 -0.0714,-0.0677 -0.1620762,-0.0454 -0.2046951,-0.0854 -0.329437,-0.30866 -0.1745439,-0.31236 -0.2388069,-0.58829 -0.2985428,-1.2819 -0.07248,-0.84162 -0.057585,-1.16603 0.095332,-2.0766 0.2379403,-1.41689 0.6159203,-2.58054 0.9073087,-2.7933 0.085045,-0.0622 0.1692307,-0.0851 0.211511,-0.0577 0.1542954,0.0997 0.1000959,0.70038 -0.1325576,1.46877 -0.1545942,0.51059 -0.3482667,1.83447 -0.3569489,2.43997 -0.0078,0.54493 0.2513285,2.18203 0.3867089,2.44299 0.1381061,0.2662 0.6934732,0.47446 1.7264097,0.64743 0.8167076,0.13674 1.2297631,0.12907 1.4433055,-0.0268 0.07955,-0.0581 0.9233581,-0.31375 1.1400521,-0.34545 0.08143,-0.012 0.348027,-0.088 0.592425,-0.16924 0.244399,-0.0813 0.56506,-0.16727 0.712582,-0.19133 0.147533,-0.024 0.425888,-0.0831 0.618589,-0.1312 0.19271,-0.0481 0.459732,-0.0776 0.593405,-0.0657 0.229435,0.0207 0.488568,-0.0845 0.424483,-0.17224 z m -4.0052871,0.96072 c -0.3976438,-0.0896 -0.9721431,-0.60244 -1.2018466,-1.41798 -0.3285356,-1.16641 -0.2436845,-2.2759 0.2158941,-2.82306 l 0.1013803,-0.12071 0.1361221,0.22978 c 0.1370367,0.23133 0.252854,0.79043 0.4867053,2.34965 0.056049,0.37369 0.1541502,0.87727 0.2180138,1.11907 0.163197,0.61785 0.165069,0.64624 0.04372,0.66324 -0.05623,0.009 0.06955,0.0158 0,0 z m 4.2851151,-9.57562 c -0.403029,-0.18248 -1.841527,-0.5697 -2.312363,-0.62243 -0.736898,-0.0826 -0.951204,-0.0994 -1.591252,-0.1257 -0.7301821,-0.0299 -0.8545124,-0.0517 -0.8622188,-0.15163 -0.014235,-0.1843 0.5028067,-0.25014 1.5963778,-0.20329 0.804951,0.0345 1.398709,0.12909 1.86311,0.29677 0.42524,0.15353 1.180452,0.53652 1.428958,0.72457 0.06379,0.0483 0.157762,0.11365 0.208828,0.14544 0.179097,0.11126 -0.03652,0.0697 -0.331505,-0.0634 z m -11.7676412,6.7231 c -0.2950875,-0.35247 -0.425642,-1.01041 -0.3458317,-1.74287 0.1080651,-0.9917 0.5887144,-1.88842 1.8736288,-3.49549 0.1965457,-0.24582 0.5066585,-0.48661 0.5854211,-0.45454 0.078625,0.0321 -0.08399,0.45428 -0.4405604,1.14391 -0.5887948,1.13879 -0.9686279,2.13638 -1.1794235,3.09764 -0.2420907,1.10397 -0.3406312,1.51491 -0.3688105,1.53801 -0.016935,0.0139 -0.0729,-0.0252 -0.1244178,-0.0866 z"
         style="fill:#005f00;fill-opacity:1;stroke-width:0.05294175" />
    </g>
    <g
       transform="matrix(5.5842298,-0.60462859,0.60462859,5.5842298,-169.72108,-1431.1341)"
       id="layer1-9">
      <path
         id="path3724-3"
         d="m -0.39400756,298.70727 c 0.00732,-0.0137 0.0280779,-0.0257 0.0468174,-0.0265 0.0640189,-0.003 0.0955889,-0.12127 0.0616398,-0.23114 -0.0187104,-0.0605 -0.0660534,-0.17399 -0.10516439,-0.25218 -0.0391098,-0.0782 -0.0987456,-0.22162 -0.13250823,-0.31873 -0.0336647,-0.0971 -0.17305035,-0.42931 -0.30960801,-0.73822 -0.13659861,-0.30891 -0.25150611,-0.60095 -0.25544421,-0.64895 -0.00567,-0.0681 0.017734,-0.12727 0.10643045,-0.26977 0.2703021,-0.43416 0.68308313,-0.77285 1.3093022,-1.07432 0.3427683,-0.16503 0.64423361,-0.36033 0.68868035,-0.44621 0.02756,-0.0534 -0.068858,-0.22046 -0.13521465,-0.23431 -0.069187,-0.0145 -0.3025062,0.0788 -0.8685498,0.34727 -0.98819121,0.46864 -1.30514615,0.73082 -1.28624445,1.06398 0.012443,0.21919 -0.018101,0.10939 -0.066971,-0.24122 -0.061146,-0.43971 -0.097744,-0.8711 -0.1088752,-1.29333 -0.00822,-0.3149 -0.00219,-0.35134 0.1182095,-0.70601 0.84503163,-2.28616 2.8076195,-4.14089 4.2727101,-3.75583 0.2982016,0.0665 0.5979078,0.36476 0.6837506,0.46828 0.3182344,0.45828 -0.035172,0.8961 -0.2094561,1.24189 -0.1163269,0.22626 -0.1324816,0.32554 -0.059798,0.36756 0.095351,0.0552 0.1972306,0.002 0.3437413,-0.17984 0.7632882,-0.88045 1.6933059,-1.04836 2.2630432,-0.1941 0.5540741,0.81059 0.8131228,1.84459 0.6997617,2.98268 -0.019381,0.17599 -7.39e-4,-0.0998 0,0 0.00225,0.29021 -0.089488,0.78312 -0.2096762,1.12624 -0.1330571,0.37988 -0.4330498,0.87794 -0.6412912,1.06466 -0.055082,0.0495 -0.168054,0.19884 -0.2510424,0.33211 -0.1519071,0.24393 -0.2277842,0.33323 -0.6064654,0.71369 -0.3919338,0.39375 -0.9444947,0.75294 -1.1548987,0.75071 -0.055471,-9.9e-4 -0.051478,-0.006 0.033564,-0.0435 0.084248,-0.0374 0.1042614,-0.0631 0.1551238,-0.19865 0.071152,-0.18977 0.085374,-0.35105 0.066149,-0.74924 -0.02334,-0.48314 -0.055486,-0.66633 -0.205685,-1.1727 -0.2338256,-0.78789 -0.5245286,-1.42203 -0.697804,-1.52223 -0.050619,-0.0293 -0.097783,-0.0363 -0.1186108,-0.0178 -0.07596,0.0676 -0.00207,0.40489 0.1807536,0.82483 0.1214953,0.27904 0.3244555,1.01725 0.3741152,1.36054 0.044467,0.30899 0.026209,1.25713 -0.02758,1.41494 -0.054866,0.16098 -0.3395623,0.31862 -0.8849926,0.49004 -0.4312512,0.13547 -0.655056,0.1604 -0.7820498,0.087 -0.047352,-0.0274 -0.5223475,-0.11279 -0.6418236,-0.11544 -0.044929,-0.001 -0.194649,-0.0255 -0.33274618,-0.0541 -0.1381324,-0.0288 -0.3178294,-0.055 -0.3993473,-0.0582 -0.081549,-0.003 -0.2363425,-0.0169 -0.3440626,-0.0307 -0.1077272,-0.0137 -0.25424187,-0.0115 -0.32559739,0.005 -0.12247033,0.0279 -0.27032914,-0.0134 -0.2422081,-0.0678 z m 2.23609306,0.2619 c 0.2082438,-0.0791 0.4806703,-0.41103 0.5442536,-0.89051 0.090933,-0.68576 -0.037318,-1.30991 -0.3263471,-1.58812 l -0.063787,-0.0614 -0.056514,0.14016 c -0.056899,0.14109 -0.077968,0.46685 -0.088564,1.36901 -0.00255,0.21622 -0.018196,0.50919 -0.034724,0.65105 -0.042359,0.36249 -0.041195,0.37873 0.025678,0.37979 0.030987,10e-4 -0.036456,0.0137 0,0 z m -3.0271049,-5.13509 c 0.20428011,-0.1322 0.95297652,-0.45403 1.20353792,-0.51735 0.3921366,-0.0991 0.5067117,-0.12383 0.850683,-0.18415 0.39241778,-0.0687 0.45799568,-0.0899 0.45473068,-0.14724 -0.00642,-0.10562 -0.2903185,-0.10645 -0.87787968,-0.002 -0.4325082,0.0765 -0.74638708,0.17235 -0.98491864,0.30056 -0.218431,0.11729 -0.59815598,0.38835 -0.71849668,0.51276 -0.030902,0.032 -0.076832,0.0757 -0.1020625,0.0974 -0.088516,0.0758 0.024889,0.037 0.174467,-0.0595 z m 6.8593348,2.98484 c 0.1333069,-0.2211 0.1550011,-0.60404 0.057477,-1.0144 -0.1320845,-0.55559 -0.4584246,-1.03086 -1.2722296,-1.8526 -0.1244806,-0.1257 -0.3099723,-0.24049 -0.3501534,-0.21669 -0.040114,0.0238 0.079141,0.25207 0.3230523,0.61849 0.4027876,0.6051 0.682174,1.14478 0.86748,1.67583 0.2128325,0.60986 0.2966156,0.83628 0.3135612,0.84742 0.00994,0.007 0.037533,-0.0195 0.06084,-0.0581 z"
         style="fill:#005f00;fill-opacity:1;stroke-width:0.02958265" />
    </g>
    <path
       id="path1028"
       d="m 24.697289,198.67491 c 10.343938,-18.26931 27.563727,-25.07163 44.855487,-26.33041 21.238585,-1.5461 37.222474,14.25653 59.196574,24.02033 30.65722,10.70376 58.98917,-11.58162 95.40488,-21.66359 20.86494,-5.77662 43.27882,5.47709 47.99848,25.84777"
       style="fill:none;stroke:#005f00;stroke-width:3;stroke-linecap:round;stroke-linejoin:miter;stroke-miterlimit:4;stroke-dasharray:none;stroke-opacity:1" />
    <path
       id="path1032"
       d="m 405.35527,252.93199 c -1.50644,-2.11876 -3.2094,-3.69739 -5.04637,-4.83966 -2.61442,-1.62571 -5.5003,-2.36754 -8.47747,-2.52466 -2.84856,-0.15033 -5.78069,0.23464 -8.63858,0.89287 -18.39493,4.63078 -37.79702,16.09557 -53.7768,14.91067 -17.4517,-0.73743 -37.60038,-6.04725 -49.52452,-14.85374"
       style="fill:#74bf04;fill-opacity:0;stroke:#005f00;stroke-width:3;stroke-linecap:round;stroke-linejoin:miter;stroke-miterlimit:4;stroke-dasharray:none;stroke-opacity:1" />
    <g
       transform="matrix(2.0689255,0,0,2.0689255,245.25776,-518.80598)"
       id="layer1-7" />
  </g>
</svg>
