<?xml version="1.0" encoding="UTF-8" standalone="no"?>
<!-- Created with Inkscape (http://www.inkscape.org/) -->

<svg
   xmlns:dc="http://purl.org/dc/elements/1.1/"
   xmlns:cc="http://creativecommons.org/ns#"
   xmlns:rdf="http://www.w3.org/1999/02/22-rdf-syntax-ns#"
   xmlns:svg="http://www.w3.org/2000/svg"
   xmlns="http://www.w3.org/2000/svg"
   xmlns:sodipodi="http://sodipodi.sourceforge.net/DTD/sodipodi-0.dtd"
   xmlns:inkscape="http://www.inkscape.org/namespaces/inkscape"
   width="1080"
   height="1080"
   viewBox="0 0 285.74999 285.75001"
   version="1.1"
   id="svg8"
   inkscape:version="0.92.4 (f8dce91, 2019-08-02)"
   sodipodi:docname="avatar.svg"
   inkscape:export-filename="/home/felicity/Documents/Eco map/project/static/img/avatar.png"
   inkscape:export-xdpi="81.919998"
   inkscape:export-ydpi="81.919998">
  <defs
     id="defs2" />
  <sodipodi:namedview
     id="base"
     pagecolor="#ffffff"
     bordercolor="#666666"
     borderopacity="1.0"
     inkscape:pageopacity="0.0"
     inkscape:pageshadow="2"
     inkscape:zoom="0.25"
     inkscape:cx="260.13953"
     inkscape:cy="468.74242"
     inkscape:document-units="px"
     inkscape:current-layer="layer1-3"
     showgrid="false"
     units="px"
     inkscape:window-width="1533"
     inkscape:window-height="845"
     inkscape:window-x="67"
     inkscape:window-y="27"
     inkscape:window-maximized="1" />
  <metadata
     id="metadata5">
    <rdf:RDF>
      <cc:Work
         rdf:about="">
        <dc:format>image/svg+xml</dc:format>
        <dc:type
           rdf:resource="http://purl.org/dc/dcmitype/StillImage" />
        <dc:title></dc:title>
      </cc:Work>
    </rdf:RDF>
  </metadata>
  <g
     inkscape:label="Layer 1"
     inkscape:groupmode="layer"
     id="layer1"
     transform="translate(0,-11.249983)">
    <g
       id="layer1-3"
       transform="matrix(-18.142306,0,0,18.142306,258.42889,-5107.9756)">
      <rect
         style="fill:#ffffff;fill-opacity:1;stroke:none;stroke-width:0.06314284;stroke-linecap:round;stroke-miterlimit:4;stroke-dasharray:none;stroke-opacity:1;opacity:0.99999999"
         id="rect938"
         width="15.687336"
         height="15.687336"
         x="-14.212974"
         y="282.20218"
         transform="scale(-1,1)" />
      <path
         style="fill:#9bbf65;fill-opacity:1;stroke-width:0.04411108"
         d="m 11.512956,295.54287 c -0.01346,-0.0184 -0.04774,-0.0317 -0.07618,-0.0295 -0.09773,0.008 -0.16891,-0.15682 -0.139291,-0.3217 0.0163,-0.0908 0.06552,-0.26342 0.109348,-0.38359 0.04383,-0.12018 0.105773,-0.3383 0.13765,-0.48475 0.03186,-0.14643 0.177208,-0.65188 0.322961,-1.12323 0.145752,-0.47135 0.262106,-0.91427 0.258563,-0.98426 -0.005,-0.0994 -0.05205,-0.18019 -0.214779,-0.36896 -0.495725,-0.57505 -1.188463,-0.98549 -2.1973335,-1.3019 -0.552226,-0.17322 -1.047849,-0.3979 -1.132227,-0.51335 -0.05238,-0.0717 0.06072,-0.33098 0.158499,-0.3635 0.102034,-0.0339 0.474116,0.0565 1.3852355,0.33666 1.590619,0.48907 2.122973,0.80728 2.160345,1.29136 0.02459,0.31848 0.0491,0.15434 0.05385,-0.36057 0.0059,-0.64573 -0.02452,-1.27483 -0.09134,-1.88589 -0.04985,-0.45573 -0.06631,-0.50714 -0.319085,-0.99591 -1.733821,-3.13748 -5.0759955,-5.44144 -7.2202455,-4.6091 -0.438787,0.15224 -0.833919,0.63912 -0.943526,0.80464 -0.391498,0.72112 0.230899,1.28575 0.563587,1.75153 0.22115,0.30434 0.265302,0.44447 0.163477,0.51881 -0.133616,0.0976 -0.298572,0.0399 -0.556644,-0.19439 -1.331369,-1.12554 -2.77421,-1.19187 -3.46844399,0.14783 -0.679129,1.27384 -0.866846,2.81411 -0.469491,4.43409 0.06427,0.25016 -0.01859,-0.14404 0,0 0.05406,0.41898 0.290832,1.11255 0.540985,1.58469 0.27694703,0.52273 0.83034799,1.18434 1.18296099,1.41427 0.09327,0.0609 0.29412,0.25502 0.446311,0.43154 0.278571,0.32309 0.411283,0.43754 1.060625,0.91466 0.672056,0.4938 1.580731,0.90737 1.899192,0.86438 0.08396,-0.0114 0.0767,-0.0183 -0.05949,-0.0564 -0.135042,-0.0379 -0.170552,-0.0712 -0.274487,-0.25717 -0.14543,-0.26026 -0.198974,-0.49017 -0.248746,-1.06809 -0.06039,-0.70123 -0.04798,-0.97153 0.07943,-1.73022 0.198252,-1.18055 0.513185,-2.15011 0.75597,-2.32737 0.07086,-0.0518 0.141003,-0.0709 0.176231,-0.0481 0.128559,0.0831 0.0834,0.58355 -0.110447,1.22378 -0.128808,0.42542 -0.290176,1.52848 -0.29741,2.03298 -0.0065,0.45404 0.209407,1.81807 0.322206,2.0355 0.11507,0.2218 0.577802,0.39533 1.438445,0.53944 0.680481,0.11393 1.024639,0.10754 1.202563,-0.0224 0.06628,-0.0484 0.769342,-0.26142 0.949891,-0.28783 0.06785,-0.01 0.289977,-0.0734 0.493609,-0.14101 0.203634,-0.0677 0.4708075,-0.13937 0.5937235,-0.15941 0.122924,-0.02 0.35485,-0.0692 0.515408,-0.10932 0.160566,-0.0401 0.383049,-0.0647 0.494425,-0.0547 0.191166,0.0172 0.407075,-0.0704 0.35368,-0.14351 z m -3.3372065,0.80047 c -0.331317,-0.0746 -0.80999,-0.50195 -1.001379,-1.18146 -0.273736,-0.97185 -0.203038,-1.89628 0.179883,-2.35217 l 0.08447,-0.10058 0.113417,0.19145 c 0.114179,0.19274 0.210678,0.65859 0.405523,1.95773 0.0467,0.31136 0.128438,0.73094 0.181649,0.93241 0.135976,0.5148 0.137536,0.53844 0.03643,0.55261 -0.04685,0.007 0.05795,0.0131 0,0 z m 3.5703595,-7.97841 c -0.335804,-0.15205 -1.534361,-0.47467 -1.9266617,-0.51861 -0.6139838,-0.0688 -0.7925438,-0.0828 -1.3258318,-0.10473 -0.608388,-0.0249 -0.71198,-0.0431 -0.718401,-0.12634 -0.01186,-0.15356 0.418939,-0.20842 1.330103,-0.16938 0.670685,0.0287 1.1654045,0.10755 1.5523425,0.24727 0.35431,0.12792 0.983553,0.44702 1.190609,0.60371 0.05315,0.0402 0.131447,0.0947 0.173995,0.12118 0.149224,0.0927 -0.03043,0.0581 -0.27621,-0.0528 z m -9.8048025,5.60169 c -0.245867,-0.29367 -0.354645,-0.84188 -0.288147,-1.45216 0.09004,-0.82628 0.490517,-1.57343 1.561108,-2.91244 0.163762,-0.20482 0.422148,-0.40545 0.487773,-0.37873 0.06551,0.0267 -0.06998,0.37851 -0.367075,0.95311 -0.490584,0.94884 -0.807061,1.78003 -0.982696,2.58096 -0.20171,0.91982 -0.283814,1.26222 -0.307293,1.28147 -0.01411,0.0116 -0.06074,-0.021 -0.103665,-0.0722 z"
         id="path3724"
         inkscape:connector-curvature="0" />
      <flowRoot
         xml:space="preserve"
         id="flowRoot888"
         style="font-style:normal;font-variant:normal;font-weight:normal;font-stretch:normal;font-size:106.66664124px;line-height:1.25;font-family:'Josefin Sans';-inkscape-font-specification:'Josefin Sans';text-align:center;letter-spacing:0px;word-spacing:0px;text-anchor:middle;fill:#154034;fill-opacity:1;stroke:none"
         transform="matrix(-0.02494024,0,0,0.02494024,18.802146,282.61626)"><flowRegion
           id="flowRegion890"
           style="font-size:106.66664124px;text-align:center;text-anchor:middle;fill:#154034;fill-opacity:1"><rect
             id="rect892"
             width="1234.2858"
             height="782.85712"
             x="-117.14286"
             y="182.85715"
             style="font-size:106.66664124px;text-align:center;text-anchor:middle;fill:#154034;fill-opacity:1" /></flowRegion><flowPara
           id="flowPara894"
           style="font-style:normal;font-variant:normal;font-weight:600;font-stretch:normal;font-family:'Josefin Sans';-inkscape-font-specification:'Josefin Sans Semi-Bold';letter-spacing:0px">GREEN</flowPara><flowPara
           id="flowPara896"
           style="font-style:normal;font-variant:normal;font-weight:600;font-stretch:normal;font-family:'Josefin Sans';-inkscape-font-specification:'Josefin Sans Semi-Bold';letter-spacing:0px">LIVING</flowPara></flowRoot>    </g>
  </g>
</svg>
